<svg width="134" height="20" viewBox="0 0 134 20" fill="none" xmlns="http://www.w3.org/2000/svg">
<path d="M3.68844 19.4581C1.54195 20.698 0 19.6648 0 17.827C0 15.8705 0 10.0003 0 10.0003C0 10.0003 0 4.13012 0 2.1737C0 0.33591 1.54099 -0.697309 3.68844 0.542554C7.03156 2.47314 17.06 8.26682 17.06 8.26682C18.3934 9.03695 18.3934 10.9628 17.06 11.7329C17.06 11.7338 7.03156 17.5275 3.68844 19.4581Z" fill="#00C1FF"/>
<path d="M14.7265 19.4574C12.58 20.6972 11.038 19.664 11.038 17.8262C11.038 15.8698 11.038 9.9996 11.038 9.9996C11.038 9.9996 11.038 4.12939 11.038 2.17297C11.038 0.335178 12.579 -0.698041 14.7265 0.541821C17.9959 2.43032 27.8043 8.09676 27.8043 8.09676C29.2688 8.94246 29.2688 11.0567 27.8043 11.9024C27.8034 11.9024 17.9959 17.5689 14.7265 19.4574Z" fill="#BCEC30"/>
<mask id="mask0" style="mask-type:alpha" maskUnits="userSpaceOnUse" x="11" y="0" width="18" height="20">
<path d="M14.7265 19.4574C12.58 20.6972 11.038 19.664 11.038 17.8262C11.038 15.8698 11.038 9.9996 11.038 9.9996C11.038 9.9996 11.038 4.12939 11.038 2.17297C11.038 0.335178 12.579 -0.698041 14.7265 0.541821C17.9959 2.43032 27.8043 8.09676 27.8043 8.09676C29.2688 8.94246 29.2688 11.0567 27.8043 11.9024C27.8034 11.9024 17.9959 17.5689 14.7265 19.4574Z" fill="#6FE4FF"/>
</mask>
<g mask="url(#mask0)">
<g filter="url(#filter0_f)">
<path d="M3.68893 19.4584C1.54244 20.6982 0.000488281 19.665 0.000488281 17.8272C0.000488281 15.8708 0.000488281 10.0006 0.000488281 10.0006C0.000488281 10.0006 0.000488281 4.13036 0.000488281 2.17394C0.000488281 0.336155 1.54148 -0.697065 3.68893 0.542798C7.03205 2.47339 17.0605 8.26707 17.0605 8.26707C18.3939 9.0372 18.3939 10.963 17.0605 11.7331C17.0605 11.7341 7.03205 17.5278 3.68893 19.4584Z" fill="#99D100"/>
</g>
</g>
<path d="M36.0769 13.4934L36.4509 12.6419C36.7058 12.0629 37.1647 11.9097 37.7426 12.3354C38.8474 13.1528 40.6661 13.7488 43.0966 13.7488C45.1702 13.7488 46.0541 13.2209 46.0541 12.5908C46.0541 11.8756 45.3232 11.6883 44.1164 11.535L41.363 11.1774C38.0486 10.7346 36.3829 9.5426 36.3829 7.46502C36.3829 5.23418 38.2015 3.46313 42.4168 3.46313C44.7623 3.46313 46.275 3.82075 47.2609 4.19539C48.3487 4.62113 48.5016 4.97874 48.5016 5.86427V7.02226C48.5016 7.73749 48.2467 7.9759 47.5498 7.9759H46.7679C46.0541 7.9759 45.8161 7.72046 45.8161 7.02226V6.64761C45.3572 6.49435 44.2184 6.27297 42.8927 6.27297C40.5641 6.27297 39.4423 6.6987 39.4423 7.41393C39.4423 7.94184 40.1222 8.24837 41.363 8.41866L44.0654 8.77628C47.3288 9.18498 49.0625 10.1727 49.0625 12.5568C49.0625 14.9749 46.7679 16.5246 42.6717 16.5246C39.6633 16.5246 37.2497 15.571 36.2809 14.6854C35.941 14.3449 35.89 13.9191 36.0769 13.4934Z" fill="white"/>
<path d="M65.922 16.3193H64.5283C63.8484 16.3193 63.6274 16.2171 63.2875 15.7063L60.67 11.8406C60.2961 11.3127 60.0071 11.1765 59.2253 11.1765H56.6077V15.3657C56.6077 16.0809 56.3528 16.3193 55.6559 16.3193H54.6531C53.9392 16.3193 53.7013 16.0639 53.7013 15.3657V2.79805H52.7665C52.0526 2.79805 51.8146 2.54261 51.8146 1.84441V0.992948C51.8146 0.277717 52.0696 0.0393066 52.7665 0.0393066H55.6729C56.3868 0.0393066 56.6247 0.294746 56.6247 0.992948V8.34961H58.9703C59.7522 8.34961 60.0241 8.2304 60.415 7.68546L62.6076 4.29663C62.9646 3.76872 63.1855 3.66655 63.8654 3.66655H65.2591C66.024 3.66655 66.16 4.2796 65.735 4.90969L63.2875 8.62208C63.0325 8.97969 62.7266 9.35434 62.4377 9.66086C62.7436 9.9163 63.1685 10.342 63.3385 10.5975L66.3979 15.1102C66.8228 15.7063 66.6699 16.3193 65.922 16.3193Z" fill="white"/>
<path d="M70.8973 18.6353V17.8009C70.8973 17.0857 71.1522 16.8472 71.8491 16.8472H73.0559C73.7867 16.8472 74.1437 16.694 74.4156 16.115L74.5686 15.7914L68.7897 4.84159C68.4327 4.17744 68.7217 3.68359 69.4695 3.68359H70.7783C71.4582 3.68359 71.7641 3.8028 72.0191 4.29665L74.4326 9.26921C74.9935 10.4102 75.6224 11.7214 76.1153 12.8624C76.6252 11.7555 77.2031 10.4783 77.747 9.37138L80.2115 4.29665C80.4325 3.81983 80.7724 3.68359 81.4523 3.68359H82.7611C83.5259 3.68359 83.7979 4.19447 83.4409 4.84159L76.8632 17.3581C76.0983 18.8056 75.2315 19.606 73.2598 19.606H71.8151C71.1352 19.606 70.8973 19.3506 70.8973 18.6353Z" fill="white"/>
<path d="M101.213 10.0024C101.213 14.0213 98.2385 16.5246 94.2273 16.5246C92.4936 16.5246 91.1679 16.0989 90.233 15.571V19.0109C90.233 19.7261 89.9781 19.9645 89.2812 19.9645H88.2784C87.5645 19.9645 87.3266 19.7091 87.3266 19.0109V6.44326H86.3917C85.6779 6.44326 85.4399 6.18782 85.4399 5.48962V4.63816C85.4399 3.92293 85.6949 3.68452 86.3917 3.68452H88.8393C89.5532 3.68452 89.7911 3.93996 89.7911 4.63816V4.70627C90.7429 4.07619 92.1877 3.46313 94.2273 3.46313C98.2385 3.48016 101.213 5.98347 101.213 10.0024ZM98.1876 10.0024C98.1876 7.65234 96.3009 6.34109 93.9553 6.34109C92.2727 6.34109 90.8959 7.05632 90.25 7.63531V12.3865C90.9129 12.9655 92.2727 13.6807 93.9553 13.6807C96.3009 13.6637 98.1876 12.3524 98.1876 10.0024Z" fill="white"/>
<path d="M117.047 9.0145C117.047 9.72973 116.792 9.96814 116.095 9.96814H115.092C114.378 9.96814 114.14 9.76379 114.14 9.0145C114.14 7.14128 113.426 6.30684 111.727 6.30684C110.112 6.30684 108.769 7.31157 108.021 8.53768V15.3664C108.021 16.0817 107.766 16.3201 107.069 16.3201H106.067C105.353 16.3201 105.115 16.0646 105.115 15.3664V6.44308H104.18C103.466 6.44308 103.228 6.18764 103.228 5.48944V4.63797C103.228 3.92274 103.483 3.68433 104.18 3.68433H106.628C107.341 3.68433 107.579 3.93977 107.579 4.63797V5.45538C108.48 4.45065 109.857 3.47998 112.203 3.47998C115.636 3.47998 117.047 5.5235 117.047 9.0145Z" fill="white"/>
<path d="M118.852 10.002C118.852 6.25551 122.013 3.47974 126.211 3.47974C130.376 3.47974 133.52 6.25551 133.52 10.002C133.52 13.7654 130.359 16.5412 126.211 16.5412C122.013 16.5412 118.852 13.7654 118.852 10.002ZM130.631 10.002C130.631 7.82221 128.71 6.23848 126.211 6.23848C123.662 6.23848 121.741 7.83924 121.741 10.002C121.741 12.1987 123.662 13.7995 126.211 13.7995C128.727 13.7995 130.631 12.1987 130.631 10.002Z" fill="white"/>
<defs>
<filter id="filter0_f" x="-1.46075" y="-1.46027" width="20.9825" height="22.9217" filterUnits="userSpaceOnUse" color-interpolation-filters="sRGB">
<feFlood flood-opacity="0" result="BackgroundImageFix"/>
<feBlend mode="normal" in="SourceGraphic" in2="BackgroundImageFix" result="shape"/>
<feGaussianBlur stdDeviation="0.730621" result="effect1_foregroundBlur"/>
</filter>
</defs>
</svg>
