<svg width="47" height="47" viewBox="0 0 47 47" fill="none" xmlns="http://www.w3.org/2000/svg">
<g clip-path="url(#clip0)">
<path d="M34.8822 0H11.6274C5.20576 0 0 5.20576 0 11.6274V34.8822C0 41.3038 5.20576 46.5095 11.6274 46.5095H34.8822C41.3038 46.5095 46.5095 41.3038 46.5095 34.8822V11.6274C46.5095 5.20576 41.3038 0 34.8822 0Z" fill="#271A58"/>
<path d="M10.3326 22.0827L25.9927 15.6305C27.5385 14.9584 32.7809 12.8076 32.7809 12.8076C32.7809 12.8076 35.2005 11.8667 34.9989 14.1519C34.9316 15.0928 34.394 18.3862 33.8563 21.9483L32.176 32.5003C32.176 32.5003 32.0415 34.0461 30.899 34.315C29.7565 34.5838 27.8746 33.3741 27.5385 33.1052C27.2697 32.9035 22.4977 29.8791 20.7503 28.4004C20.2798 27.9972 19.7421 27.1907 20.8174 26.2498C23.237 24.0318 26.1271 21.2761 27.8746 19.5287C28.681 18.7222 29.4876 16.8403 26.1271 19.1255L16.6504 25.5105C16.6504 25.5105 15.575 26.1825 13.5588 25.5776C11.5425 24.9728 9.19008 24.1662 9.19008 24.1662C9.19008 24.1662 7.57703 23.158 10.3326 22.0827Z" fill="white"/>
</g>
<defs>
<clipPath id="clip0">
<rect width="46.5095" height="46.5095" fill="white"/>
</clipPath>
</defs>
</svg>
